# xmcd
#
# Track frame offsets:
#	150
#	14341
#	36998
#	50803
#	69102
#	85767
#	99289
#	115754
#	129599
#	144964
#	163114
#	183794
#
# Disc length: 2706 seconds
#
# Revision: 0
# Processed by: cddbd v1.4PL0 Copyright (c) Steve Scherf et al.
# Submitted via: dBpowerAMP V4.0
#
DISCID=950a900c
DTITLE=County Line - County Line
DYEAR=2000
DGENRE=Country
TTITLE0=Feel It In The Air
TTITLE1=More Like An Angel
TTITLE2=S.O.B.
TTITLE3=They Don't Make 'Em Like They Used To
TTITLE4=Sex On The Beach
TTITLE5=Queenless King
TTITLE6=I'd Still Be Your Man
TTITLE7=One Bottle At A Time
TTITLE8=South Georgia Woman
TTITLE9=Putting Out Your Flame
TTITLE10=Every Chance I Get
TTITLE11=7 Years Gone
EXTD=County Line's 1st CD\n\nTodd Oblak
EXTT0=
EXTT1=
EXTT2=
EXTT3=
EXTT4=
EXTT5=
EXTT6=
EXTT7=
EXTT8=
EXTT9=
EXTT10=
EXTT11=
PLAYORDER=
